# xmcd
#
# Track frame offsets:
#	187
#	10065
#	22767
#	40625
#	50360
#	61660
#	72165
#	78640
#	92785
#	103682
#	116260
#	125657
#	141105
#	152990
#
# Disc length: 2182 seconds
#
# Revision: 1
# Processed by: cddbd v1.5PL3 Copyright (c) Steve Scherf et al.
# Submitted via: CDex 1.50Beta5
#
DISCID=ab08840e
DTITLE=Eric Crapton , Jimy Page , Jeff Beck - The Blues Guiter Summit
DYEAR=1990
DGENRE=Blues
TTITLE0=I'm Your Witch Doctor
TTITLE1=On Top Of The World
TTITLE2=Telephone Blues
TTITLE3=Tribute To Elmore
TTITLE4=Snake Drive
TTITLE5=West Coast Idea
TTITLE6=Choker
TTITLE7=Draggin' My Tail
TTITLE8=Miles Road
TTITLE9=Freight Loader
TTITLE10=L.A. Breakdown
TTITLE11=Down In The Boots
TTITLE12=Steelin'
TTITLE13=Chuckles
EXTD=
EXTT0=
EXTT1=
EXTT2=
EXTT3=
EXTT4=
EXTT5=
EXTT6=
EXTT7=
EXTT8=
EXTT9=
EXTT10=
EXTT11=
EXTT12=
EXTT13=
PLAYORDER=
